# xmcd CD database file
#
# Track frame offsets:
#	150
#	22095
#	49680
#	69069
#	91171
#	106597
#	129687
#	142141
#	157510
#
# Disc length: 2337 seconds
#
# Revision: 0
# Processed by: cddbd v1.5.1PL0 Copyright (c) Steve Scherf et al.
# Submitted via: CDex 1.51
#
DISCID=68091f09
DTITLE=Rooster - Born In Mississippi
DYEAR=2002
DGENRE=Blues
TTITLE0=Born In Mississippi
TTITLE1=Cell Phone Blues
TTITLE2=Stranger In Your Town
TTITLE3=Jo Ann
TTITLE4=Got To Get To My Baby
TTITLE5=The Mirror
TTITLE6=Too Many Days
TTITLE7=Best Man At Your Wedding
TTITLE8=Mistakes
EXTD=YEAR: 2002
EXTT0=
EXTT1=
EXTT2=
EXTT3=
EXTT4=
EXTT5=
EXTT6=
EXTT7=
EXTT8=
PLAYORDER=
